<?xml version="1.0" encoding="UTF-8"?>
<svg width="24px" height="24px" viewBox="0 0 24 24" version="1.1" xmlns="http://www.w3.org/2000/svg" xmlns:xlink="http://www.w3.org/1999/xlink">
    <!-- Generator: sketchtool 53.2 (72643) - https://sketchapp.com -->
    <title>DED82462-A124-487A-9158-178FAA73A980</title>
    <desc>Created with sketchtool.</desc>
    <defs>
        <path d="M20,12.5 C20,12.9608333 19.6275,13.3333333 19.1666667,13.3333333 L16.6666667,13.3333333 L16.6666667,15.8333333 C16.6666667,16.2941667 16.2941667,16.6666667 15.8333333,16.6666667 C15.3725,16.6666667 15,16.2941667 15,15.8333333 L15,13.3333333 L12.5,13.3333333 C12.0391667,13.3333333 11.6666667,12.9608333 11.6666667,12.5 C11.6666667,12.0391667 12.0391667,11.6666667 12.5,11.6666667 L15,11.6666667 L15,9.16666667 C15,8.70666667 15.3725,8.33333333 15.8333333,8.33333333 C16.2941667,8.33333333 16.6666667,8.70666667 16.6666667,9.16666667 L16.6666667,11.6666667 L19.1666667,11.6666667 C19.6275,11.6666667 20,12.0391667 20,12.5 M10,10.8333333 C10,11.2933333 9.62666667,11.6666667 9.16666667,11.6666667 L5.83333333,11.6666667 C3.5325,11.6666667 1.66666667,13.5316667 1.66666667,15.8333333 C1.66666667,16.2941667 1.29333333,16.6666667 0.833333333,16.6666667 C0.373333333,16.6666667 0,16.2941667 0,15.8333333 C0,12.6116667 2.61166667,10 5.83333333,10 L9.16666667,10 C9.62666667,10 10,10.3733333 10,10.8333333 M8.33333333,6.66666667 C6.9525,6.66666667 5.83333333,5.5475 5.83333333,4.16666667 C5.83333333,2.78583333 6.9525,1.66666667 8.33333333,1.66666667 C9.71416667,1.66666667 10.8333333,2.78583333 10.8333333,4.16666667 C10.8333333,5.5475 9.71416667,6.66666667 8.33333333,6.66666667 M8.33333333,0 C6.0325,0 4.16666667,1.86583333 4.16666667,4.16666667 C4.16666667,6.4675 6.0325,8.33333333 8.33333333,8.33333333 C10.6341667,8.33333333 12.5,6.4675 12.5,4.16666667 C12.5,1.86583333 10.6341667,0 8.33333333,0" id="path-1"></path>
    </defs>
    <g id="bloomen_desktop" stroke="none" stroke-width="1" fill="none" fill-rule="evenodd">
        <g id="Assets" transform="translate(-166.000000, -543.000000)">
            <g id="material_icons" transform="translate(72.000000, 454.000000)">
                <g id="ic_add_user" transform="translate(96.000000, 93.000000)">
                    <mask id="mask-2" fill="white">
                        <use xlink:href="#path-1"></use>
                    </mask>
                    <use fill="#000000" xlink:href="#path-1"></use>
                </g>
            </g>
        </g>
    </g>
</svg>