<?xml version="1.0" encoding="UTF-8"?>
<svg width="24px" height="24px" viewBox="0 0 24 24" version="1.1" xmlns="http://www.w3.org/2000/svg" xmlns:xlink="http://www.w3.org/1999/xlink">
    <!-- Generator: sketchtool 53.2 (72643) - https://sketchapp.com -->
    <title>C22DF0D4-22A9-4893-814B-791C60FFAACA</title>
    <desc>Created with sketchtool.</desc>
    <defs>
        <path d="M7.09200526,2.12310702 C7.09200526,1.78490526 7.35687368,1.52003684 7.69507544,1.52003684 L14.3047246,1.52003684 C14.6431675,1.52003684 14.9077947,1.78490526 14.9077947,2.12310702 L14.9077947,6.1757386 C14.9077947,6.51394035 14.6431675,6.77880877 14.3047246,6.77880877 L7.69507544,6.77880877 C7.3682114,6.77880877 7.09200526,6.50260263 7.09200526,6.1757386 L7.09200526,2.12310702 Z M5.37928596,16.2831947 C5.37928596,16.3666596 5.29413246,16.4520544 5.21042632,16.4520544 L1.66437368,16.4520544 C1.58066754,16.4520544 1.49551404,16.3666596 1.49551404,16.2831947 L1.49551404,14.5463526 C1.49551404,14.4626465 1.58066754,14.377493 1.66437368,14.377493 L5.21042632,14.377493 C5.29413246,14.377493 5.37928596,14.4626465 5.37928596,14.5463526 L5.37928596,16.2831947 Z M9.23893509,14.377493 L12.7852289,14.377493 C12.8621807,14.377493 12.9297246,14.4563746 12.9297246,14.5463526 L12.9297246,16.2831947 C12.9297246,16.3666596 12.8445711,16.4520544 12.7608649,16.4520544 L9.23893509,16.4520544 C9.15547018,16.4520544 9.07007544,16.3666596 9.07007544,16.2831947 L9.07007544,14.5463526 C9.07007544,14.4626465 9.15547018,14.377493 9.23893509,14.377493 L9.23893509,14.377493 Z M16.620514,14.5463526 C16.620514,14.4626465 16.7059088,14.377493 16.7893737,14.377493 L20.3354263,14.377493 C20.4191325,14.377493 20.5045272,14.4626465 20.5045272,14.5463526 L20.5045272,16.2831947 C20.5045272,16.3666596 20.4191325,16.4520544 20.3354263,16.4520544 L16.7893737,16.4520544 C16.7059088,16.4520544 16.620514,16.3666596 16.620514,16.2831947 L16.620514,14.5463526 Z M20.3354263,12.8818789 L19.3222684,12.8818789 L19.3222684,10.373107 C19.3222684,9.96084825 18.9869614,9.6253 18.5747026,9.6253 L11.747707,9.6253 L11.747707,8.29854561 L14.3047246,8.29854561 C15.4754044,8.29854561 16.4275316,7.34617719 16.4275316,6.1757386 L16.4275316,2.12310702 C16.4275316,0.952427193 15.4754044,0.0003 14.3047246,0.0003 L7.69507544,0.0003 C6.52463684,0.0003 5.57226842,0.952427193 5.57226842,2.12310702 L5.57226842,6.1757386 C5.57226842,7.34617719 6.52463684,8.29854561 7.69507544,8.29854561 L10.252093,8.29854561 L10.252093,9.6253 L3.4253386,9.6253 C3.01307982,9.6253 2.67753158,9.96084825 2.67753158,10.373107 L2.67753158,12.8577561 L1.42314561,12.8577561 L1.42314561,12.8992474 C0.619132456,13.0164842 -0.0001,13.7104974 -0.0001,14.5463526 L-0.0001,16.2831947 C-0.0001,17.2008263 0.746500877,17.9476684 1.66437368,17.9476684 L5.21042632,17.9476684 C6.12829912,17.9476684 6.8749,17.2008263 6.8749,16.2831947 L6.8749,14.5463526 C6.8749,13.6284798 6.12829912,12.8818789 5.21042632,12.8818789 L4.19726842,12.8818789 L4.19726842,11.1450368 L10.252093,11.1450368 L10.252093,12.8818789 L9.23893509,12.8818789 C8.32130351,12.8818789 7.5744614,13.6284798 7.5744614,14.5463526 L7.5744614,16.2831947 C7.5744614,17.2008263 8.32130351,17.9476684 9.23893509,17.9476684 L12.7852289,17.9476684 C13.7028605,17.9476684 14.4494614,17.2008263 14.4494614,16.2831947 L14.4494614,14.5463526 C14.4494614,13.6284798 13.7028605,12.8818789 12.7852289,12.8818789 L11.7718298,12.8818789 L11.7718298,11.1450368 L17.8266544,11.1450368 L17.8266544,12.8818789 L16.7893737,12.8818789 C15.8717421,12.8818789 15.1249,13.6284798 15.1249,14.5463526 L15.1249,16.2831947 C15.1249,17.2008263 15.8717421,17.9476684 16.7893737,17.9476684 L20.3354263,17.9476684 C21.2532991,17.9476684 21.9999,17.2008263 21.9999,16.2831947 L21.9999,14.5463526 C21.9999,13.6284798 21.2532991,12.8818789 20.3354263,12.8818789 L20.3354263,12.8818789 Z" id="path-1"></path>
    </defs>
    <g id="bloomen_desktop" stroke="none" stroke-width="1" fill="none" fill-rule="evenodd">
        <g id="Assets" transform="translate(-262.000000, -453.000000)">
            <g id="material_icons" transform="translate(72.000000, 454.000000)">
                <g id="ic_company_management" transform="translate(191.000000, 2.000000)">
                    <mask id="mask-2" fill="white">
                        <use xlink:href="#path-1"></use>
                    </mask>
                    <use fill="#000000" xlink:href="#path-1"></use>
                </g>
            </g>
        </g>
    </g>
</svg>