<?xml version="1.0" encoding="UTF-8"?>
<svg width="24px" height="24px" viewBox="0 0 24 24" version="1.1" xmlns="http://www.w3.org/2000/svg" xmlns:xlink="http://www.w3.org/1999/xlink">
    <!-- Generator: sketchtool 53.2 (72643) - https://sketchapp.com -->
    <title>0A5E542F-4CFC-4503-8B88-AE3312ADD9B2</title>
    <desc>Created with sketchtool.</desc>
    <defs>
        <path d="M17.229,18.869 C16.846,18.869 16.535,19.18 16.535,19.563 C16.535,19.947 16.846,20.258 17.229,20.258 C17.613,20.258 17.924,19.947 17.924,19.563 C17.924,19.18 17.613,18.869 17.229,18.869 M17.23,14.677 C16.847,14.677 16.535,14.989 16.535,15.372 L16.535,17.955 C16.535,18.338 16.847,18.65 17.23,18.65 C17.613,18.65 17.925,18.338 17.925,17.955 L17.925,15.372 C17.925,14.989 17.613,14.677 17.23,14.677 M12.449,17.39 C12.449,15.974 13.106,14.667 14.257,13.785 L14.257,1.391 L1.392,1.391 L1.392,18.466 L12.582,18.466 C12.494,18.114 12.449,17.754 12.449,17.39 M17.225,14.17 C15.358,14.17 13.839,15.614 13.839,17.39 C13.839,19.165 15.358,20.609 17.225,20.609 C19.091,20.609 20.61,19.165 20.61,17.39 C20.61,15.614 19.091,14.17 17.225,14.17 M22,17.39 C22,19.931 19.858,22 17.225,22 C15.602,22 14.072,21.182 13.198,19.856 L0.696,19.856 C0.313,19.856 0,19.545 0,19.161 L0,0.695 C0,0.312 0.313,0 0.696,0 L14.953,0 C15.336,0 15.649,0.312 15.649,0.695 L15.649,13.039 C16.156,12.866 16.685,12.779 17.225,12.779 C19.858,12.779 22,14.847 22,17.39 M11.786,15.071 L3.864,15.071 C3.48,15.071 3.168,15.384 3.168,15.766 C3.168,16.149 3.48,16.462 3.864,16.462 L11.786,16.462 C12.168,16.462 12.481,16.149 12.481,15.766 C12.481,15.384 12.168,15.071 11.786,15.071 M11.786,12.152 L3.864,12.152 C3.48,12.152 3.168,12.464 3.168,12.848 C3.168,13.23 3.48,13.542 3.864,13.542 L11.786,13.542 C12.168,13.542 12.481,13.23 12.481,12.848 C12.481,12.464 12.168,12.152 11.786,12.152 M11.786,9.233 L3.864,9.233 C3.48,9.233 3.168,9.545 3.168,9.928 C3.168,10.311 3.48,10.623 3.864,10.623 L11.786,10.623 C12.168,10.623 12.481,10.311 12.481,9.928 C12.481,9.545 12.168,9.233 11.786,9.233 M11.786,6.313 L3.864,6.313 C3.48,6.313 3.168,6.626 3.168,7.009 C3.168,7.392 3.48,7.704 3.864,7.704 L11.786,7.704 C12.168,7.704 12.481,7.392 12.481,7.009 C12.481,6.626 12.168,6.313 11.786,6.313 M12.481,4.09 C12.481,4.473 12.168,4.785 11.786,4.785 L3.864,4.785 C3.48,4.785 3.168,4.473 3.168,4.09 C3.168,3.706 3.48,3.394 3.864,3.394 L11.786,3.394 C12.168,3.394 12.481,3.706 12.481,4.09" id="path-1"></path>
    </defs>
    <g id="bloomen_desktop" stroke="none" stroke-width="1" fill="none" fill-rule="evenodd">
        <g id="Assets" transform="translate(-358.000000, -453.000000)">
            <g id="material_icons" transform="translate(72.000000, 454.000000)">
                <g id="ic_claim" transform="translate(287.000000, 0.000000)">
                    <mask id="mask-2" fill="white">
                        <use xlink:href="#path-1"></use>
                    </mask>
                    <use fill="#000000" xlink:href="#path-1"></use>
                </g>
            </g>
        </g>
    </g>
</svg>