<?xml version="1.0" encoding="UTF-8"?>
<svg width="24px" height="24px" viewBox="0 0 24 24" version="1.1" xmlns="http://www.w3.org/2000/svg" xmlns:xlink="http://www.w3.org/1999/xlink">
    <!-- Generator: sketchtool 53.2 (72643) - https://sketchapp.com -->
    <title>6960AF72-61F9-42BD-B575-D7EF256CC76A</title>
    <desc>Created with sketchtool.</desc>
    <defs>
        <path d="M1.418,7.675 L7.675,7.675 L7.675,1.418 L1.418,1.418 L1.418,7.675 Z M8.385,0 L0.71,0 C0.318,0 0,0.318 0,0.71 L0,8.384 C0,8.775 0.318,9.094 0.71,9.094 L8.385,9.094 C8.776,9.094 9.094,8.775 9.094,8.384 L9.094,0.71 C9.094,0.318 8.776,0 8.385,0 L8.385,0 Z M1.418,18.582 L7.675,18.582 L7.675,12.324 L1.418,12.324 L1.418,18.582 Z M8.385,10.906 L0.71,10.906 C0.318,10.906 0,11.225 0,11.616 L0,19.29 C0,19.682 0.318,20 0.71,20 L8.385,20 C8.776,20 9.094,19.682 9.094,19.29 L9.094,11.616 C9.094,11.225 8.776,10.906 8.385,10.906 L8.385,10.906 Z M12.325,7.675 L18.582,7.675 L18.582,1.418 L12.325,1.418 L12.325,7.675 Z M19.291,0 L11.616,0 C11.225,0 10.906,0.318 10.906,0.71 L10.906,8.384 C10.906,8.775 11.225,9.094 11.616,9.094 L19.291,9.094 C19.683,9.094 20,8.775 20,8.384 L20,0.71 C20,0.318 19.683,0 19.291,0 L19.291,0 Z M12.325,18.582 L18.582,18.582 L18.582,12.324 L12.325,12.324 L12.325,18.582 Z M19.291,10.906 L11.616,10.906 C11.225,10.906 10.906,11.225 10.906,11.616 L10.906,19.29 C10.906,19.682 11.225,20 11.616,20 L19.291,20 C19.683,20 20,19.682 20,19.29 L20,11.616 C20,11.225 19.683,10.906 19.291,10.906 L19.291,10.906 Z" id="path-1"></path>
    </defs>
    <g id="bloomen_desktop" stroke="none" stroke-width="1" fill="none" fill-rule="evenodd">
        <g id="Assets" transform="translate(-166.000000, -453.000000)">
            <g id="material_icons" transform="translate(72.000000, 454.000000)">
                <g id="ic_dashboard" transform="translate(96.000000, 1.000000)">
                    <mask id="mask-2" fill="white">
                        <use xlink:href="#path-1"></use>
                    </mask>
                    <use fill="#000000" xlink:href="#path-1"></use>
                </g>
            </g>
        </g>
    </g>
</svg>