<?xml version="1.0" encoding="UTF-8"?>
<svg width="24px" height="24px" viewBox="0 0 24 24" version="1.1" xmlns="http://www.w3.org/2000/svg" xmlns:xlink="http://www.w3.org/1999/xlink">
    <!-- Generator: sketchtool 53.2 (72643) - https://sketchapp.com -->
    <title>AE33A3D6-A9AA-423C-B9F0-3C6A2851CA05</title>
    <desc>Created with sketchtool.</desc>
    <defs>
        <path d="M16.6792898,1.662 L10.4742898,9.861 C10.3632898,10 10.3082898,10.194 10.3082898,10.36 L10.3082898,17.645 L8.5632898,16.565 L8.5632898,10.388 C8.5632898,10.194 8.5072898,10.028 8.3962898,9.889 L2.1642898,1.662 L16.6792898,1.662 Z M0.2252898,1.856 L6.9012898,10.665 L6.9012898,17.036 C6.9012898,17.313 7.0392898,17.59 7.2882898,17.728 L10.6962898,19.861 C10.8342898,19.944 10.9732898,20 11.1392898,20 C11.2782898,20 11.4162898,19.973 11.5542898,19.89 C11.8312898,19.751 11.9702898,19.474 11.9702898,19.169 L11.9702898,10.665 L18.6462898,1.856 C18.6732898,1.828 18.6732898,1.828 18.7012898,1.801 C18.9232898,1.44 18.9502898,0.997 18.7292898,0.609 C18.5352898,0.249 18.1192898,0 17.7042898,0 L1.1672898,0 C0.7512898,0 0.3362898,0.222 0.1422898,0.609 C-0.0517101999,0.97 -0.0517101999,1.44 0.1692898,1.801 C0.1972898,1.801 0.1972898,1.828 0.2252898,1.856 L0.2252898,1.856 Z" id="path-1"></path>
    </defs>
    <g id="bloomen_desktop" stroke="none" stroke-width="1" fill="none" fill-rule="evenodd">
        <g id="Assets" transform="translate(-407.000000, -454.000000)">
            <g id="material_icons" transform="translate(72.000000, 454.000000)">
                <g id="ic_filter" transform="translate(338.000000, 2.000000)">
                    <mask id="mask-2" fill="white">
                        <use xlink:href="#path-1"></use>
                    </mask>
                    <use fill="#000000" xlink:href="#path-1"></use>
                </g>
            </g>
        </g>
    </g>
</svg>