<?xml version="1.0" encoding="UTF-8"?>
<svg width="24px" height="24px" viewBox="0 0 24 24" version="1.1" xmlns="http://www.w3.org/2000/svg" xmlns:xlink="http://www.w3.org/1999/xlink">
    <!-- Generator: sketchtool 53.2 (72643) - https://sketchapp.com -->
    <title>07C3123B-E8AA-4F94-A6EF-8B07CE507992</title>
    <desc>Created with sketchtool.</desc>
    <defs>
        <path d="M11.4285714,0 C6.6952381,0 2.85714286,3.83809524 2.85714286,8.57142857 L0,8.57142857 L3.7047619,12.2761905 L3.77142857,12.4095238 L7.61904762,8.57142857 L4.76190476,8.57142857 C4.76190476,4.88571429 7.74285714,1.9047619 11.4285714,1.9047619 C15.1142857,1.9047619 18.0952381,4.88571429 18.0952381,8.57142857 C18.0952381,12.2571429 15.1142857,15.2380952 11.4285714,15.2380952 C9.59047619,15.2380952 7.92380952,14.4857143 6.72380952,13.2761905 L5.37142857,14.6285714 C6.92380952,16.1809524 9.05714286,17.1428571 11.4285714,17.1428571 C16.1619048,17.1428571 20,13.3047619 20,8.57142857 C20,3.83809524 16.1619048,0 11.4285714,0 Z M10.4761905,4.76190476 L10.4761905,9.52380952 L14.552381,11.9428571 L15.2380952,10.7904762 L11.9047619,8.80952381 L11.9047619,4.76190476 L10.4761905,4.76190476 Z" id="path-1"></path>
    </defs>
    <g id="bloomen_desktop" stroke="none" stroke-width="1" fill="none" fill-rule="evenodd">
        <g id="Assets" transform="translate(-118.000000, -453.000000)">
            <g id="material_icons" transform="translate(72.000000, 454.000000)">
                <g id="ic_restore" transform="translate(48.000000, 2.000000)">
                    <mask id="mask-2" fill="white">
                        <use xlink:href="#path-1"></use>
                    </mask>
                    <use id="Shape" fill="#000000" fill-rule="nonzero" xlink:href="#path-1"></use>
                </g>
            </g>
        </g>
    </g>
</svg>