<?xml version="1.0" encoding="UTF-8"?>
<svg width="24px" height="24px" viewBox="0 0 24 24" version="1.1" xmlns="http://www.w3.org/2000/svg" xmlns:xlink="http://www.w3.org/1999/xlink">
    <!-- Generator: sketchtool 53.2 (72643) - https://sketchapp.com -->
    <title>69A28994-127C-4AF0-AE73-C55766BA869C</title>
    <desc>Created with sketchtool.</desc>
    <defs>
        <path d="M12.0862069,11 C12.0862069,10.4001422 11.5998578,9.9137931 11,9.9137931 C10.4001422,9.9137931 9.9137931,10.4001422 9.9137931,11 C9.9137931,11.5998578 10.4001422,12.0862069 11,12.0862069 C11.5998578,12.0862069 12.0862069,11.5998578 12.0862069,11 M10.9604183,20.0517241 C10.7824053,20.0517241 10.637931,19.9190065 10.637931,19.7554795 C10.637931,19.5919524 10.7824053,19.4592348 10.9604183,19.4592348 C13.8509792,19.4592348 16.4850552,18.1089517 18.0065502,15.8472225 C18.1005015,15.7077901 18.2989386,15.6655258 18.4505077,15.7510418 C18.6018617,15.8371502 18.6489448,16.0196369 18.5552085,16.1588719 C16.9154682,18.5963729 14.0760753,20.0517241 10.9604183,20.0517241 M7.01724138,11.362069 C7.01724138,8.96258076 8.96258076,7.01724138 11.362069,7.01724138 C13.7613285,7.01724138 15.7068966,8.96258076 15.7068966,11.362069 C15.7068966,13.7613285 13.7613285,15.7068966 11.362069,15.7068966 C8.96258076,15.7068966 7.01724138,13.7613285 7.01724138,11.362069 M4.72018808,7.60017241 C4.65851563,7.69149425 4.55291506,7.74137931 4.44515056,7.74137931 C4.38607483,7.74137931 4.32634992,7.72649425 4.27268407,7.69531609 C4.12099145,7.6066092 4.0751158,7.42034483 4.17032942,7.27933908 C5.50721522,5.30143678 7.80359465,4.12068966 10.3133391,4.12068966 C10.4925139,4.12068966 10.637931,4.25586207 10.637931,4.42241379 C10.637931,4.58896552 10.4925139,4.72413793 10.3133391,4.72413793 C8.02821224,4.72413793 5.93719128,5.79928161 4.72018808,7.60017241 M3.71889695,6.29310345 C3.66085081,6.29310345 3.6023747,6.27888401 3.54948821,6.2488652 C3.39813827,6.16275862 3.3510564,5.98027586 3.44479017,5.84104389 C5.08470118,3.40359561 7.92401747,1.94827586 11.0395904,1.94827586 C11.2175986,1.94827586 11.362069,2.0809906 11.362069,2.24451411 C11.362069,2.40803762 11.2175986,2.54075235 11.0395904,2.54075235 C8.14910751,2.54075235 5.51510257,3.89100627 3.99364869,6.15268652 C3.93237776,6.24333542 3.82681978,6.29310345 3.71889695,6.29310345 M17.2798119,14.3998261 C17.3754583,14.258418 17.5760561,14.2165789 17.7273159,14.3046824 C17.8790085,14.3933893 17.9248842,14.5796538 17.8296706,14.7206596 C16.4927848,16.6985627 14.1964054,17.8793103 11.6866609,17.8793103 C11.5074861,17.8793103 11.362069,17.7441379 11.362069,17.5775861 C11.362069,17.4110343 11.5074861,17.2758618 11.6866609,17.2758618 C13.9717878,17.2758618 16.0628087,16.2007177 17.2798119,14.3998261 M11,0.5 C5.2009375,0.5 0.5,5.2009375 0.5,11 C0.5,16.7990625 5.2009375,21.5 11,21.5 C16.7990625,21.5 21.5,16.7990625 21.5,11 C21.5,5.2009375 16.7990625,0.5 11,0.5" id="path-1"></path>
    </defs>
    <g id="bloomen_desktop" stroke="none" stroke-width="1" fill="none" fill-rule="evenodd">
        <g id="Assets" transform="translate(-253.000000, -334.000000)">
            <g id="material_icons" transform="translate(65.000000, 288.000000)">
                <g id="ic_sound_recording" transform="translate(189.000000, 47.000000)">
                    <mask id="mask-2" fill="white">
                        <use xlink:href="#path-1"></use>
                    </mask>
                    <use fill="#000000" xlink:href="#path-1"></use>
                </g>
            </g>
        </g>
    </g>
</svg>