<?xml version="1.0" encoding="UTF-8"?>
<svg width="24px" height="24px" viewBox="0 0 24 24" version="1.1" xmlns="http://www.w3.org/2000/svg" xmlns:xlink="http://www.w3.org/1999/xlink">
    <!-- Generator: sketchtool 53.2 (72643) - https://sketchapp.com -->
    <title>AE7F2B5C-BC78-43C1-8347-570D90D4930B</title>
    <desc>Created with sketchtool.</desc>
    <defs>
        <path d="M16.8666667,9.53333333 C15.4924,9.53333333 14.2054,10.0532667 13.2462,10.9948667 C13.1208,11.1166 13.0122667,11.2398 12.9081333,11.363 C12.3170667,11.1312667 11.6739333,11 11,11 C10.3268,11 9.6844,11.1305333 9.09406667,11.3622667 C8.1268,10.2065333 6.688,9.53333333 5.13333333,9.53333333 C3.75906667,9.53333333 2.47206667,10.0532667 1.51506667,10.9926667 C0.537533333,11.9328 0,13.1941333 0,14.542 L0,15.4 C0,15.8048 0.3278,16.1333333 0.733333333,16.1333333 C1.13886667,16.1333333 1.46666667,15.8048 1.46666667,15.4 L1.46666667,14.542 C1.46666667,13.596 1.8458,12.7108667 2.53733333,12.0442667 C3.22373333,11.3703333 4.1448,11 5.13333333,11 C6.15633333,11 7.10233333,11.4084667 7.7858,12.1102667 C6.61686667,13.0298667 5.86666667,14.4356667 5.86666667,16.0116 L5.86666667,16.8666667 C5.86666667,17.2714667 6.19446667,17.6 6.6,17.6 C7.00553333,17.6 7.33333333,17.2714667 7.33333333,16.8666667 L7.33333333,16.0116 C7.33333333,14.0572667 8.9782,12.4666667 11,12.4666667 C13.0218,12.4666667 14.6666667,14.0572667 14.6666667,16.0116 L14.6666667,16.8666667 C14.6666667,17.2714667 14.9944667,17.6 15.4,17.6 C15.8055333,17.6 16.1333333,17.2714667 16.1333333,16.8666667 L16.1333333,16.0116 C16.1333333,14.4342 15.3816667,13.0276667 14.2112667,12.1080667 C14.2325333,12.0860667 14.2486667,12.0655333 14.2706667,12.0442667 C14.9570667,11.3703333 15.8781333,11 16.8666667,11 C18.8884667,11 20.5333333,12.5891333 20.5333333,14.542 L20.5333333,15.4 C20.5333333,15.8048 20.8611333,16.1333333 21.2666667,16.1333333 C21.6722,16.1333333 22,15.8048 22,15.4 L22,14.542 C22,11.7802667 19.6966,9.53333333 16.8666667,9.53333333 M5.13333333,1.46666667 C6.20033333,1.46666667 7.1808,2.05626667 7.6956,2.97073333 C7.0158,3.74513333 6.6,4.75713333 6.6,5.86666667 C6.6,6.2084 6.64326667,6.53913333 6.7166,6.85886667 C6.24653333,7.16613333 5.70826667,7.33333333 5.13333333,7.33333333 C3.5156,7.33333333 2.2,6.01773333 2.2,4.4 C2.2,2.78226667 3.5156,1.46666667 5.13333333,1.46666667 M13.9333333,5.86666667 C13.9333333,7.4844 12.6177333,8.8 11,8.8 C9.38226667,8.8 8.06666667,7.4844 8.06666667,5.86666667 C8.06666667,4.24893333 9.38226667,2.93333333 11,2.93333333 C12.6177333,2.93333333 13.9333333,4.24893333 13.9333333,5.86666667 M16.8666667,1.46666667 C18.4844,1.46666667 19.8,2.78226667 19.8,4.4 C19.8,6.01773333 18.4844,7.33333333 16.8666667,7.33333333 C16.2917333,7.33333333 15.7534667,7.16613333 15.2834,6.85886667 C15.3567333,6.53913333 15.4,6.2084 15.4,5.86666667 C15.4,4.75713333 14.9842,3.74513333 14.3044,2.97073333 C14.8192,2.05626667 15.7996667,1.46666667 16.8666667,1.46666667 M5.13333333,8.8 C5.896,8.8 6.63446667,8.59246667 7.28933333,8.2214 C8.07106667,9.449 9.4402,10.2666667 11,10.2666667 C12.5598,10.2666667 13.9289333,9.44826667 14.7106667,8.2214 C15.3655333,8.59246667 16.104,8.8 16.8666667,8.8 C19.2932667,8.8 21.2666667,6.8266 21.2666667,4.4 C21.2666667,1.9734 19.2932667,0 16.8666667,0 C15.3538,0 13.9663333,0.797133333 13.167,2.0416 C12.5260667,1.67786667 11.7876,1.46666667 11,1.46666667 C10.2116667,1.46666667 9.4732,1.67786667 8.833,2.0416 C8.03366667,0.797133333 6.6462,0 5.13333333,0 C2.70673333,0 0.733333333,1.9734 0.733333333,4.4 C0.733333333,6.8266 2.70673333,8.8 5.13333333,8.8" id="path-1"></path>
    </defs>
    <g id="bloomen_desktop" stroke="none" stroke-width="1" fill="none" fill-rule="evenodd">
        <g id="Assets" transform="translate(-391.000000, -287.000000)">
            <g id="material_icons" transform="translate(65.000000, 288.000000)">
                <g id="ic_user_management" transform="translate(327.000000, 2.000000)">
                    <mask id="mask-2" fill="white">
                        <use xlink:href="#path-1"></use>
                    </mask>
                    <use fill="#000000" xlink:href="#path-1"></use>
                </g>
            </g>
        </g>
    </g>
</svg>